<?xml version="1.0" encoding="utf-8"?>
<!-- Generator: Adobe Illustrator 22.1.0, SVG Export Plug-In . SVG Version: 6.00 Build 0)  -->
<svg version="1.1" id="Layer_1" xmlns:sketch="http://www.bohemiancoding.com/sketch/ns"
	 xmlns="http://www.w3.org/2000/svg" xmlns:xlink="http://www.w3.org/1999/xlink" x="0px" y="0px" viewBox="0 0 24 24"
	 style="enable-background:new 0 0 24 24;" xml:space="preserve">
<style type="text/css">
	.st0{fill:#558EFC;}
</style>
<title>cardboard</title>
<desc>Created with Sketch.</desc>
<g id="Page-1" sketch:type="MSPage">
	<g id="cardboard" sketch:type="MSArtboardGroup">
		<path id="Imported-Layers" sketch:type="MSShapeGroup" class="st0" d="M22.4,4.7h-21C0.6,4.7,0,5.4,0,6.3v12.5
			c0,0.8,0.6,1.6,1.4,1.6h5.8c0.6,0,1.1-0.4,1.3-1l1.7-4.2c0.2-0.7,1-1.2,1.7-1.2c0.7,0,1.4,0.5,1.7,1.2l1.7,4.2
			c0.2,0.6,0.7,1,1.3,1h5.8c0.8,0,1.6-0.7,1.6-1.6V6.3C24,5.4,23.3,4.7,22.4,4.7L22.4,4.7z M6.5,15.3c-1.4,0-2.7-1.2-2.7-2.8
			s1.2-2.8,2.7-2.8s2.7,1.2,2.7,2.8S8,15.3,6.5,15.3L6.5,15.3z M17.5,15.3c-1.4,0-2.7-1.2-2.7-2.8s1.2-2.8,2.7-2.8s2.7,1.2,2.7,2.8
			S18.9,15.3,17.5,15.3L17.5,15.3z"/>
		<g id="Oval-2-_x2B_-Imported-Layers" transform="translate(18.000000, 20.000000)" sketch:type="MSLayerGroup">
		</g>
	</g>
</g>
</svg>
