<?xml version="1.0" encoding="utf-8"?>
<!-- Generator: Adobe Illustrator 22.1.0, SVG Export Plug-In . SVG Version: 6.00 Build 0)  -->
<svg version="1.1" id="Layer_1" xmlns:sketch="http://www.bohemiancoding.com/sketch/ns"
	 xmlns="http://www.w3.org/2000/svg" xmlns:xlink="http://www.w3.org/1999/xlink" x="0px" y="0px" viewBox="0 0 24 24"
	 style="enable-background:new 0 0 24 24;" xml:space="preserve">
<style type="text/css">
	.st0{fill:#ABB2BE;}
</style>
<title>cardboard</title>
<desc>Created with Sketch.</desc>
<g id="Page-1" sketch:type="MSPage">
	<g id="cardboard" sketch:type="MSArtboardGroup">
		<path id="Imported-Layers" sketch:type="MSShapeGroup" class="st0" d="M22.5,4.8H1.6c-0.8,0-1.4,0.7-1.4,1.5v12.5
			c0,0.8,0.7,1.5,1.5,1.5h5.7c0.6,0,1.1-0.4,1.4-0.9l1.7-4.1c0.3-0.7,0.9-1.2,1.7-1.2c0.8,0,1.4,0.5,1.7,1.2l1.7,4.1
			c0.2,0.5,0.7,0.9,1.3,0.9h5.7c0.8,0,1.5-0.7,1.5-1.5V6.3C24,5.5,23.3,4.8,22.5,4.8L22.5,4.8z M6.7,15.3c-1.5,0-2.6-1.2-2.6-2.7
			c0-1.5,1.2-2.7,2.6-2.7c1.5,0,2.6,1.2,2.6,2.7C9.3,14.1,8.2,15.3,6.7,15.3L6.7,15.3z M17.5,15.3c-1.5,0-2.6-1.2-2.6-2.7
			c0-1.5,1.2-2.7,2.6-2.7s2.6,1.2,2.6,2.7C20.1,14.1,18.9,15.3,17.5,15.3L17.5,15.3z"/>
		<g id="Oval-2-_x2B_-Imported-Layers" transform="translate(18.000000, 20.000000)" sketch:type="MSLayerGroup">
		</g>
	</g>
</g>
</svg>
